<svg width="29" height="23" viewBox="0 0 29 23" fill="none" xmlns="http://www.w3.org/2000/svg">
<path d="M17.2604 17.1846H11.0521M24.5546 17.1846H25.8801C26.6374 17.1846 27.2552 16.5668 27.2552 15.8094V9.00323C27.2552 8.72421 27.1655 8.44521 27.006 8.21601L24.5546 4.6784C24.2956 4.30969 23.8774 4.08046 23.419 4.08046H18.9746V15.4606M4.35533 17.1846H3.11991C2.36256 17.1846 1.74484 16.5668 1.74484 15.8094V2.70527C1.74484 1.94792 2.36256 1.33008 3.11991 1.33008H17.599C18.3564 1.33008 18.9746 1.94792 18.9746 2.70527V4.21001M17.6092 17.8822C17.6092 19.7855 19.1538 21.3301 21.0571 21.3301C22.9605 21.3301 24.505 19.7855 24.505 17.8822C24.505 15.9788 22.9605 14.4342 21.0571 14.4342C19.1538 14.4342 17.6092 15.9788 17.6092 17.8822ZM4.5052 17.8822C4.5052 19.7855 6.04975 21.3301 7.95309 21.3301C9.85643 21.3301 11.401 19.7855 11.401 17.8822C11.401 15.9788 9.85643 14.4342 7.95309 14.4342C6.04975 14.4342 4.5052 15.9788 4.5052 17.8822Z" stroke="black" stroke-width="2" stroke-linejoin="round"/>
</svg>
